solid OpenSCAD_Model
  facet normal 0.995192 0.0979479 0
    outer loop
      vertex -1 3.3 3.35
      vertex -1.0048 3.34877 3.25
      vertex -1.0048 3.34877 3.35
    endloop
  endfacet
  facet normal 0.995192 0.0979479 0
    outer loop
      vertex -1.0048 3.34877 3.25
      vertex -1 3.3 3.35
      vertex -1 3.3 3.25
    endloop
  endfacet
  facet normal 0.956923 0.290341 0
    outer loop
      vertex -1.0048 3.34877 3.35
      vertex -1.01903 3.39567 3.25
      vertex -1.01903 3.39567 3.35
    endloop
  endfacet
  facet normal 0.956923 0.290341 0
    outer loop
      vertex -1.01903 3.39567 3.25
      vertex -1.0048 3.34877 3.35
      vertex -1.0048 3.34877 3.25
    endloop
  endfacet
  facet normal 0.881935 0.471372 0
    outer loop
      vertex -1.01903 3.39567 3.35
      vertex -1.04213 3.43889 3.25
      vertex -1.04213 3.43889 3.35
    endloop
  endfacet
  facet normal 0.881935 0.471372 0
    outer loop
      vertex -1.04213 3.43889 3.25
      vertex -1.01903 3.39567 3.35
      vertex -1.01903 3.39567 3.25
    endloop
  endfacet
  facet normal 0.773066 0.634326 0
    outer loop
      vertex -1.04213 3.43889 3.35
      vertex -1.07322 3.47678 3.25
      vertex -1.07322 3.47678 3.35
    endloop
  endfacet
  facet normal 0.773066 0.634326 0
    outer loop
      vertex -1.07322 3.47678 3.25
      vertex -1.04213 3.43889 3.35
      vertex -1.04213 3.43889 3.25
    endloop
  endfacet
  facet normal 0.634326 0.773066 -0
    outer loop
      vertex -1.07322 3.47678 3.25
      vertex -1.11111 3.50787 3.35
      vertex -1.07322 3.47678 3.35
    endloop
  endfacet
  facet normal 0.634326 0.773066 0
    outer loop
      vertex -1.11111 3.50787 3.35
      vertex -1.07322 3.47678 3.25
      vertex -1.11111 3.50787 3.25
    endloop
  endfacet
  facet normal 0.471372 0.881935 -0
    outer loop
      vertex -1.11111 3.50787 3.25
      vertex -1.15433 3.53097 3.35
      vertex -1.11111 3.50787 3.35
    endloop
  endfacet
  facet normal 0.471372 0.881935 0
    outer loop
      vertex -1.15433 3.53097 3.35
      vertex -1.11111 3.50787 3.25
      vertex -1.15433 3.53097 3.25
    endloop
  endfacet
  facet normal 0.290341 0.956923 -0
    outer loop
      vertex -1.15433 3.53097 3.25
      vertex -1.20123 3.5452 3.35
      vertex -1.15433 3.53097 3.35
    endloop
  endfacet
  facet normal 0.290341 0.956923 0
    outer loop
      vertex -1.20123 3.5452 3.35
      vertex -1.15433 3.53097 3.25
      vertex -1.20123 3.5452 3.25
    endloop
  endfacet
  facet normal 0.0979479 0.995192 -0
    outer loop
      vertex -1.20123 3.5452 3.25
      vertex -1.25 3.55 3.35
      vertex -1.20123 3.5452 3.35
    endloop
  endfacet
  facet normal 0.0979479 0.995192 0
    outer loop
      vertex -1.25 3.55 3.35
      vertex -1.20123 3.5452 3.25
      vertex -1.25 3.55 3.25
    endloop
  endfacet
  facet normal -0.0979479 0.995192 0
    outer loop
      vertex -1.25 3.55 3.25
      vertex -1.29877 3.5452 3.35
      vertex -1.25 3.55 3.35
    endloop
  endfacet
  facet normal -0.0979479 0.995192 0
    outer loop
      vertex -1.29877 3.5452 3.35
      vertex -1.25 3.55 3.25
      vertex -1.29877 3.5452 3.25
    endloop
  endfacet
  facet normal -0.290341 0.956923 0
    outer loop
      vertex -1.29877 3.5452 3.25
      vertex -1.34567 3.53097 3.35
      vertex -1.29877 3.5452 3.35
    endloop
  endfacet
  facet normal -0.290341 0.956923 0
    outer loop
      vertex -1.34567 3.53097 3.35
      vertex -1.29877 3.5452 3.25
      vertex -1.34567 3.53097 3.25
    endloop
  endfacet
  facet normal -0.471372 0.881935 0
    outer loop
      vertex -1.34567 3.53097 3.25
      vertex -1.38889 3.50787 3.35
      vertex -1.34567 3.53097 3.35
    endloop
  endfacet
  facet normal -0.471372 0.881935 0
    outer loop
      vertex -1.38889 3.50787 3.35
      vertex -1.34567 3.53097 3.25
      vertex -1.38889 3.50787 3.25
    endloop
  endfacet
  facet normal -0.634326 0.773066 0
    outer loop
      vertex -1.38889 3.50787 3.25
      vertex -1.42678 3.47678 3.35
      vertex -1.38889 3.50787 3.35
    endloop
  endfacet
  facet normal -0.634326 0.773066 0
    outer loop
      vertex -1.42678 3.47678 3.35
      vertex -1.38889 3.50787 3.25
      vertex -1.42678 3.47678 3.25
    endloop
  endfacet
  facet normal -0.773066 0.634326 0
    outer loop
      vertex -1.45787 3.43889 3.25
      vertex -1.42678 3.47678 3.35
      vertex -1.42678 3.47678 3.25
    endloop
  endfacet
  facet normal -0.773066 0.634326 0
    outer loop
      vertex -1.42678 3.47678 3.35
      vertex -1.45787 3.43889 3.25
      vertex -1.45787 3.43889 3.35
    endloop
  endfacet
  facet normal -0.881935 0.471372 0
    outer loop
      vertex -1.48097 3.39567 3.25
      vertex -1.45787 3.43889 3.35
      vertex -1.45787 3.43889 3.25
    endloop
  endfacet
  facet normal -0.881935 0.471372 0
    outer loop
      vertex -1.45787 3.43889 3.35
      vertex -1.48097 3.39567 3.25
      vertex -1.48097 3.39567 3.35
    endloop
  endfacet
  facet normal -0.956923 0.290341 0
    outer loop
      vertex -1.4952 3.34877 3.25
      vertex -1.48097 3.39567 3.35
      vertex -1.48097 3.39567 3.25
    endloop
  endfacet
  facet normal -0.956923 0.290341 0
    outer loop
      vertex -1.48097 3.39567 3.35
      vertex -1.4952 3.34877 3.25
      vertex -1.4952 3.34877 3.35
    endloop
  endfacet
  facet normal -0.995192 0.0979479 0
    outer loop
      vertex -1.5 3.3 3.25
      vertex -1.4952 3.34877 3.35
      vertex -1.4952 3.34877 3.25
    endloop
  endfacet
  facet normal -0.995192 0.0979479 0
    outer loop
      vertex -1.4952 3.34877 3.35
      vertex -1.5 3.3 3.25
      vertex -1.5 3.3 3.35
    endloop
  endfacet
  facet normal -0.995192 -0.0979479 0
    outer loop
      vertex -1.4952 3.25123 3.25
      vertex -1.5 3.3 3.35
      vertex -1.5 3.3 3.25
    endloop
  endfacet
  facet normal -0.995192 -0.0979479 0
    outer loop
      vertex -1.5 3.3 3.35
      vertex -1.4952 3.25123 3.25
      vertex -1.4952 3.25123 3.35
    endloop
  endfacet
  facet normal -0.956923 -0.290341 0
    outer loop
      vertex -1.48097 3.20433 3.25
      vertex -1.4952 3.25123 3.35
      vertex -1.4952 3.25123 3.25
    endloop
  endfacet
  facet normal -0.956923 -0.290341 0
    outer loop
      vertex -1.4952 3.25123 3.35
      vertex -1.48097 3.20433 3.25
      vertex -1.48097 3.20433 3.35
    endloop
  endfacet
  facet normal -0.881935 -0.471372 0
    outer loop
      vertex -1.45787 3.16111 3.25
      vertex -1.48097 3.20433 3.35
      vertex -1.48097 3.20433 3.25
    endloop
  endfacet
  facet normal -0.881935 -0.471372 0
    outer loop
      vertex -1.48097 3.20433 3.35
      vertex -1.45787 3.16111 3.25
      vertex -1.45787 3.16111 3.35
    endloop
  endfacet
  facet normal -0.773066 -0.634326 0
    outer loop
      vertex -1.42678 3.12322 3.25
      vertex -1.45787 3.16111 3.35
      vertex -1.45787 3.16111 3.25
    endloop
  endfacet
  facet normal -0.773066 -0.634326 0
    outer loop
      vertex -1.45787 3.16111 3.35
      vertex -1.42678 3.12322 3.25
      vertex -1.42678 3.12322 3.35
    endloop
  endfacet
  facet normal -0.634326 -0.773066 0
    outer loop
      vertex -1.42678 3.12322 3.25
      vertex -1.38889 3.09213 3.35
      vertex -1.42678 3.12322 3.35
    endloop
  endfacet
  facet normal -0.634326 -0.773066 -0
    outer loop
      vertex -1.38889 3.09213 3.35
      vertex -1.42678 3.12322 3.25
      vertex -1.38889 3.09213 3.25
    endloop
  endfacet
  facet normal -0.471372 -0.881935 0
    outer loop
      vertex -1.38889 3.09213 3.25
      vertex -1.34567 3.06903 3.35
      vertex -1.38889 3.09213 3.35
    endloop
  endfacet
  facet normal -0.471372 -0.881935 -0
    outer loop
      vertex -1.34567 3.06903 3.35
      vertex -1.38889 3.09213 3.25
      vertex -1.34567 3.06903 3.25
    endloop
  endfacet
  facet normal -0.290341 -0.956923 0
    outer loop
      vertex -1.34567 3.06903 3.25
      vertex -1.29877 3.0548 3.35
      vertex -1.34567 3.06903 3.35
    endloop
  endfacet
  facet normal -0.290341 -0.956923 -0
    outer loop
      vertex -1.29877 3.0548 3.35
      vertex -1.34567 3.06903 3.25
      vertex -1.29877 3.0548 3.25
    endloop
  endfacet
  facet normal -0.0979479 -0.995192 0
    outer loop
      vertex -1.29877 3.0548 3.25
      vertex -1.25 3.05 3.35
      vertex -1.29877 3.0548 3.35
    endloop
  endfacet
  facet normal -0.0979479 -0.995192 -0
    outer loop
      vertex -1.25 3.05 3.35
      vertex -1.29877 3.0548 3.25
      vertex -1.25 3.05 3.25
    endloop
  endfacet
  facet normal 0.0979479 -0.995192 0
    outer loop
      vertex -1.25 3.05 3.25
      vertex -1.20123 3.0548 3.35
      vertex -1.25 3.05 3.35
    endloop
  endfacet
  facet normal 0.0979479 -0.995192 0
    outer loop
      vertex -1.20123 3.0548 3.35
      vertex -1.25 3.05 3.25
      vertex -1.20123 3.0548 3.25
    endloop
  endfacet
  facet normal 0.290341 -0.956923 0
    outer loop
      vertex -1.20123 3.0548 3.25
      vertex -1.15433 3.06903 3.35
      vertex -1.20123 3.0548 3.35
    endloop
  endfacet
  facet normal 0.290341 -0.956923 0
    outer loop
      vertex -1.15433 3.06903 3.35
      vertex -1.20123 3.0548 3.25
      vertex -1.15433 3.06903 3.25
    endloop
  endfacet
  facet normal 0.471372 -0.881935 0
    outer loop
      vertex -1.15433 3.06903 3.25
      vertex -1.11111 3.09213 3.35
      vertex -1.15433 3.06903 3.35
    endloop
  endfacet
  facet normal 0.471372 -0.881935 0
    outer loop
      vertex -1.11111 3.09213 3.35
      vertex -1.15433 3.06903 3.25
      vertex -1.11111 3.09213 3.25
    endloop
  endfacet
  facet normal 0.634326 -0.773066 0
    outer loop
      vertex -1.11111 3.09213 3.25
      vertex -1.07322 3.12322 3.35
      vertex -1.11111 3.09213 3.35
    endloop
  endfacet
  facet normal 0.634326 -0.773066 0
    outer loop
      vertex -1.07322 3.12322 3.35
      vertex -1.11111 3.09213 3.25
      vertex -1.07322 3.12322 3.25
    endloop
  endfacet
  facet normal 0.773066 -0.634326 0
    outer loop
      vertex -1.07322 3.12322 3.35
      vertex -1.04213 3.16111 3.25
      vertex -1.04213 3.16111 3.35
    endloop
  endfacet
  facet normal 0.773066 -0.634326 0
    outer loop
      vertex -1.04213 3.16111 3.25
      vertex -1.07322 3.12322 3.35
      vertex -1.07322 3.12322 3.25
    endloop
  endfacet
  facet normal 0.881935 -0.471372 0
    outer loop
      vertex -1.04213 3.16111 3.35
      vertex -1.01903 3.20433 3.25
      vertex -1.01903 3.20433 3.35
    endloop
  endfacet
  facet normal 0.881935 -0.471372 0
    outer loop
      vertex -1.01903 3.20433 3.25
      vertex -1.04213 3.16111 3.35
      vertex -1.04213 3.16111 3.25
    endloop
  endfacet
  facet normal 0.956923 -0.290341 0
    outer loop
      vertex -1.01903 3.20433 3.35
      vertex -1.0048 3.25123 3.25
      vertex -1.0048 3.25123 3.35
    endloop
  endfacet
  facet normal 0.956923 -0.290341 0
    outer loop
      vertex -1.0048 3.25123 3.25
      vertex -1.01903 3.20433 3.35
      vertex -1.01903 3.20433 3.25
    endloop
  endfacet
  facet normal 0.995192 -0.0979479 0
    outer loop
      vertex -1.0048 3.25123 3.35
      vertex -1 3.3 3.25
      vertex -1 3.3 3.35
    endloop
  endfacet
  facet normal 0.995192 -0.0979479 0
    outer loop
      vertex -1 3.3 3.25
      vertex -1.0048 3.25123 3.35
      vertex -1.0048 3.25123 3.25
    endloop
  endfacet
  facet normal 0 0 -1
    outer loop
      vertex -1.0048 3.25123 3.25
      vertex -1.0048 3.34877 3.25
      vertex -1 3.3 3.25
    endloop
  endfacet
  facet normal 0 0 -1
    outer loop
      vertex -1.01903 3.20433 3.25
      vertex -1.0048 3.34877 3.25
      vertex -1.0048 3.25123 3.25
    endloop
  endfacet
  facet normal 0 0 -1
    outer loop
      vertex -1.01903 3.20433 3.25
      vertex -1.01903 3.39567 3.25
      vertex -1.0048 3.34877 3.25
    endloop
  endfacet
  facet normal 0 0 -1
    outer loop
      vertex -1.04213 3.16111 3.25
      vertex -1.01903 3.39567 3.25
      vertex -1.01903 3.20433 3.25
    endloop
  endfacet
  facet normal 0 0 -1
    outer loop
      vertex -1.04213 3.16111 3.25
      vertex -1.04213 3.43889 3.25
      vertex -1.01903 3.39567 3.25
    endloop
  endfacet
  facet normal 0 0 -1
    outer loop
      vertex -1.07322 3.12322 3.25
      vertex -1.04213 3.43889 3.25
      vertex -1.04213 3.16111 3.25
    endloop
  endfacet
  facet normal 0 0 -1
    outer loop
      vertex -1.07322 3.12322 3.25
      vertex -1.07322 3.47678 3.25
      vertex -1.04213 3.43889 3.25
    endloop
  endfacet
  facet normal 0 0 -1
    outer loop
      vertex -1.11111 3.09213 3.25
      vertex -1.07322 3.47678 3.25
      vertex -1.07322 3.12322 3.25
    endloop
  endfacet
  facet normal 0 0 -1
    outer loop
      vertex -1.11111 3.09213 3.25
      vertex -1.11111 3.50787 3.25
      vertex -1.07322 3.47678 3.25
    endloop
  endfacet
  facet normal 0 0 -1
    outer loop
      vertex -1.15433 3.06903 3.25
      vertex -1.11111 3.50787 3.25
      vertex -1.11111 3.09213 3.25
    endloop
  endfacet
  facet normal 0 0 -1
    outer loop
      vertex -1.15433 3.06903 3.25
      vertex -1.15433 3.53097 3.25
      vertex -1.11111 3.50787 3.25
    endloop
  endfacet
  facet normal 0 0 -1
    outer loop
      vertex -1.20123 3.0548 3.25
      vertex -1.15433 3.53097 3.25
      vertex -1.15433 3.06903 3.25
    endloop
  endfacet
  facet normal 0 0 -1
    outer loop
      vertex -1.20123 3.0548 3.25
      vertex -1.20123 3.5452 3.25
      vertex -1.15433 3.53097 3.25
    endloop
  endfacet
  facet normal 0 0 -1
    outer loop
      vertex -1.25 3.05 3.25
      vertex -1.20123 3.5452 3.25
      vertex -1.20123 3.0548 3.25
    endloop
  endfacet
  facet normal 0 0 -1
    outer loop
      vertex -1.25 3.05 3.25
      vertex -1.25 3.55 3.25
      vertex -1.20123 3.5452 3.25
    endloop
  endfacet
  facet normal 0 0 -1
    outer loop
      vertex -1.29877 3.0548 3.25
      vertex -1.25 3.55 3.25
      vertex -1.25 3.05 3.25
    endloop
  endfacet
  facet normal 0 0 -1
    outer loop
      vertex -1.29877 3.0548 3.25
      vertex -1.29877 3.5452 3.25
      vertex -1.25 3.55 3.25
    endloop
  endfacet
  facet normal 0 0 -1
    outer loop
      vertex -1.34567 3.06903 3.25
      vertex -1.29877 3.5452 3.25
      vertex -1.29877 3.0548 3.25
    endloop
  endfacet
  facet normal 0 0 -1
    outer loop
      vertex -1.34567 3.06903 3.25
      vertex -1.34567 3.53097 3.25
      vertex -1.29877 3.5452 3.25
    endloop
  endfacet
  facet normal 0 0 -1
    outer loop
      vertex -1.38889 3.09213 3.25
      vertex -1.34567 3.53097 3.25
      vertex -1.34567 3.06903 3.25
    endloop
  endfacet
  facet normal 0 0 -1
    outer loop
      vertex -1.38889 3.09213 3.25
      vertex -1.38889 3.50787 3.25
      vertex -1.34567 3.53097 3.25
    endloop
  endfacet
  facet normal 0 0 -1
    outer loop
      vertex -1.42678 3.12322 3.25
      vertex -1.38889 3.50787 3.25
      vertex -1.38889 3.09213 3.25
    endloop
  endfacet
  facet normal 0 0 -1
    outer loop
      vertex -1.42678 3.12322 3.25
      vertex -1.42678 3.47678 3.25
      vertex -1.38889 3.50787 3.25
    endloop
  endfacet
  facet normal 0 0 -1
    outer loop
      vertex -1.45787 3.16111 3.25
      vertex -1.42678 3.47678 3.25
      vertex -1.42678 3.12322 3.25
    endloop
  endfacet
  facet normal 0 0 -1
    outer loop
      vertex -1.45787 3.16111 3.25
      vertex -1.45787 3.43889 3.25
      vertex -1.42678 3.47678 3.25
    endloop
  endfacet
  facet normal 0 0 -1
    outer loop
      vertex -1.48097 3.20433 3.25
      vertex -1.45787 3.43889 3.25
      vertex -1.45787 3.16111 3.25
    endloop
  endfacet
  facet normal 0 0 -1
    outer loop
      vertex -1.48097 3.20433 3.25
      vertex -1.48097 3.39567 3.25
      vertex -1.45787 3.43889 3.25
    endloop
  endfacet
  facet normal 0 0 -1
    outer loop
      vertex -1.4952 3.25123 3.25
      vertex -1.48097 3.39567 3.25
      vertex -1.48097 3.20433 3.25
    endloop
  endfacet
  facet normal 0 0 -1
    outer loop
      vertex -1.4952 3.25123 3.25
      vertex -1.4952 3.34877 3.25
      vertex -1.48097 3.39567 3.25
    endloop
  endfacet
  facet normal 0 -0 -1
    outer loop
      vertex -1.4952 3.34877 3.25
      vertex -1.4952 3.25123 3.25
      vertex -1.5 3.3 3.25
    endloop
  endfacet
  facet normal 0 0 1
    outer loop
      vertex -1.0048 3.34877 3.35
      vertex -1.0048 3.25123 3.35
      vertex -1 3.3 3.35
    endloop
  endfacet
  facet normal 0 0 1
    outer loop
      vertex -1.01903 3.39567 3.35
      vertex -1.0048 3.25123 3.35
      vertex -1.0048 3.34877 3.35
    endloop
  endfacet
  facet normal 0 0 1
    outer loop
      vertex -1.01903 3.39567 3.35
      vertex -1.01903 3.20433 3.35
      vertex -1.0048 3.25123 3.35
    endloop
  endfacet
  facet normal 0 0 1
    outer loop
      vertex -1.04213 3.43889 3.35
      vertex -1.01903 3.20433 3.35
      vertex -1.01903 3.39567 3.35
    endloop
  endfacet
  facet normal 0 0 1
    outer loop
      vertex -1.04213 3.43889 3.35
      vertex -1.04213 3.16111 3.35
      vertex -1.01903 3.20433 3.35
    endloop
  endfacet
  facet normal 0 0 1
    outer loop
      vertex -1.07322 3.47678 3.35
      vertex -1.04213 3.16111 3.35
      vertex -1.04213 3.43889 3.35
    endloop
  endfacet
  facet normal 0 0 1
    outer loop
      vertex -1.07322 3.47678 3.35
      vertex -1.07322 3.12322 3.35
      vertex -1.04213 3.16111 3.35
    endloop
  endfacet
  facet normal 0 0 1
    outer loop
      vertex -1.11111 3.50787 3.35
      vertex -1.07322 3.12322 3.35
      vertex -1.07322 3.47678 3.35
    endloop
  endfacet
  facet normal 0 0 1
    outer loop
      vertex -1.11111 3.50787 3.35
      vertex -1.11111 3.09213 3.35
      vertex -1.07322 3.12322 3.35
    endloop
  endfacet
  facet normal 0 0 1
    outer loop
      vertex -1.15433 3.53097 3.35
      vertex -1.11111 3.09213 3.35
      vertex -1.11111 3.50787 3.35
    endloop
  endfacet
  facet normal 0 0 1
    outer loop
      vertex -1.15433 3.53097 3.35
      vertex -1.15433 3.06903 3.35
      vertex -1.11111 3.09213 3.35
    endloop
  endfacet
  facet normal 0 0 1
    outer loop
      vertex -1.20123 3.5452 3.35
      vertex -1.15433 3.06903 3.35
      vertex -1.15433 3.53097 3.35
    endloop
  endfacet
  facet normal 0 0 1
    outer loop
      vertex -1.20123 3.5452 3.35
      vertex -1.20123 3.0548 3.35
      vertex -1.15433 3.06903 3.35
    endloop
  endfacet
  facet normal 0 0 1
    outer loop
      vertex -1.25 3.55 3.35
      vertex -1.20123 3.0548 3.35
      vertex -1.20123 3.5452 3.35
    endloop
  endfacet
  facet normal 0 0 1
    outer loop
      vertex -1.25 3.55 3.35
      vertex -1.25 3.05 3.35
      vertex -1.20123 3.0548 3.35
    endloop
  endfacet
  facet normal -0 0 1
    outer loop
      vertex -1.29877 3.5452 3.35
      vertex -1.25 3.05 3.35
      vertex -1.25 3.55 3.35
    endloop
  endfacet
  facet normal 0 0 1
    outer loop
      vertex -1.29877 3.5452 3.35
      vertex -1.29877 3.0548 3.35
      vertex -1.25 3.05 3.35
    endloop
  endfacet
  facet normal -0 0 1
    outer loop
      vertex -1.34567 3.53097 3.35
      vertex -1.29877 3.0548 3.35
      vertex -1.29877 3.5452 3.35
    endloop
  endfacet
  facet normal 0 0 1
    outer loop
      vertex -1.34567 3.53097 3.35
      vertex -1.34567 3.06903 3.35
      vertex -1.29877 3.0548 3.35
    endloop
  endfacet
  facet normal -0 0 1
    outer loop
      vertex -1.38889 3.50787 3.35
      vertex -1.34567 3.06903 3.35
      vertex -1.34567 3.53097 3.35
    endloop
  endfacet
  facet normal 0 0 1
    outer loop
      vertex -1.38889 3.50787 3.35
      vertex -1.38889 3.09213 3.35
      vertex -1.34567 3.06903 3.35
    endloop
  endfacet
  facet normal -0 0 1
    outer loop
      vertex -1.42678 3.47678 3.35
      vertex -1.38889 3.09213 3.35
      vertex -1.38889 3.50787 3.35
    endloop
  endfacet
  facet normal 0 0 1
    outer loop
      vertex -1.42678 3.47678 3.35
      vertex -1.42678 3.12322 3.35
      vertex -1.38889 3.09213 3.35
    endloop
  endfacet
  facet normal -0 0 1
    outer loop
      vertex -1.45787 3.43889 3.35
      vertex -1.42678 3.12322 3.35
      vertex -1.42678 3.47678 3.35
    endloop
  endfacet
  facet normal 0 0 1
    outer loop
      vertex -1.45787 3.43889 3.35
      vertex -1.45787 3.16111 3.35
      vertex -1.42678 3.12322 3.35
    endloop
  endfacet
  facet normal -0 0 1
    outer loop
      vertex -1.48097 3.39567 3.35
      vertex -1.45787 3.16111 3.35
      vertex -1.45787 3.43889 3.35
    endloop
  endfacet
  facet normal 0 0 1
    outer loop
      vertex -1.48097 3.39567 3.35
      vertex -1.48097 3.20433 3.35
      vertex -1.45787 3.16111 3.35
    endloop
  endfacet
  facet normal -0 0 1
    outer loop
      vertex -1.4952 3.34877 3.35
      vertex -1.48097 3.20433 3.35
      vertex -1.48097 3.39567 3.35
    endloop
  endfacet
  facet normal 0 0 1
    outer loop
      vertex -1.4952 3.34877 3.35
      vertex -1.4952 3.25123 3.35
      vertex -1.48097 3.20433 3.35
    endloop
  endfacet
  facet normal 0 -0 1
    outer loop
      vertex -1.4952 3.25123 3.35
      vertex -1.4952 3.34877 3.35
      vertex -1.5 3.3 3.35
    endloop
  endfacet
endsolid OpenSCAD_Model
